<?xml version="1.0" encoding="UTF-8" standalone="no"?>
<svg
   xmlns:dc="http://purl.org/dc/elements/1.1/"
   xmlns:cc="http://creativecommons.org/ns#"
   xmlns:rdf="http://www.w3.org/1999/02/22-rdf-syntax-ns#"
   xmlns:svg="http://www.w3.org/2000/svg"
   xmlns="http://www.w3.org/2000/svg"
   xmlns:sodipodi="http://sodipodi.sourceforge.net/DTD/sodipodi-0.dtd"
   xmlns:inkscape="http://www.inkscape.org/namespaces/inkscape"
   id="svg8"
   version="1.1"
   viewBox="0 0 64.000001 64"
   sodipodi:docname="youtube-icon.svg"
   width="64"
   height="64"
   inkscape:version="0.92.3 (2405546, 2018-03-11)">
  <sodipodi:namedview
     pagecolor="#ffffff"
     bordercolor="#666666"
     borderopacity="1"
     objecttolerance="10"
     gridtolerance="10"
     guidetolerance="10"
     inkscape:pageopacity="0"
     inkscape:pageshadow="2"
     inkscape:window-width="1920"
     inkscape:window-height="1051"
     id="namedview4857"
     showgrid="false"
     inkscape:pagecheckerboard="true"
     inkscape:zoom="10.789941"
     inkscape:cx="18.419508"
     inkscape:cy="35.504401"
     inkscape:window-x="-9"
     inkscape:window-y="-9"
     inkscape:window-maximized="1"
     inkscape:current-layer="svg8" />
  <defs
     id="defs2">
    <clipPath
       clipPathUnits="userSpaceOnUse"
       id="clipPath26">
      <path
         d="M 0,192 H 192 V 0 H 0 Z"
         id="path24"
         inkscape:connector-curvature="0" />
    </clipPath>
    <clipPath
       clipPathUnits="userSpaceOnUse"
       id="clipPath55">
      <path
         d="M 0,192 H 192 V 0 H 0 Z"
         id="path53"
         inkscape:connector-curvature="0" />
    </clipPath>
  </defs>
  <metadata
     id="metadata5">
    <rdf:RDF>
      <cc:Work
         rdf:about="">
        <dc:format>image/svg+xml</dc:format>
        <dc:type
           rdf:resource="http://purl.org/dc/dcmitype/StillImage" />
        <dc:title></dc:title>
      </cc:Work>
    </rdf:RDF>
  </metadata>
  <g
     transform="translate(-73.83873,-94.214769)"
     id="layer1">
    <g
       transform="matrix(0.35277778,0,0,0.35277778,71.972063,92.348102)"
       id="surface127427">
      <path
         style="fill:#ffffff;fill-opacity:1;fill-rule:nonzero;stroke:none"
         d="M 78,122.16797 V 69.832031 L 124,96 Z M 180.32031,53.363281 c -2.02344,-7.621093 -7.98437,-13.625 -15.55859,-15.660156 C 151.03516,34 96,34 96,34 96,34 40.964844,34 27.238281,37.703125 19.664063,39.738281 13.703125,45.742188 11.679688,53.363281 8,67.175781 8,96 8,96 c 0,0 0,28.82031 3.679688,42.63672 2.023437,7.62109 7.984375,13.625 15.558593,15.66406 C 40.964844,158 96,158 96,158 c 0,0 55.03516,0 68.76172,-3.69922 7.57422,-2.03906 13.53515,-8.04297 15.55859,-15.66406 C 184,124.82031 184,96 184,96 c 0,0 0,-28.824219 -3.67969,-42.636719"
         id="path72"
         inkscape:connector-curvature="0" />
    </g>
  </g>
</svg>
