<?xml version="1.0" encoding="UTF-8" standalone="no"?> <!-- Created with Vectornator for iOS (http://vectornator.io/) --><!DOCTYPE svg PUBLIC "-//W3C//DTD SVG 1.1//EN" "http://www.w3.org/Graphics/SVG/1.1/DTD/svg11.dtd">
<svg height="100%" style="fill-rule:nonzero;clip-rule:evenodd;stroke-linecap:round;stroke-linejoin:round;" xmlns:xlink="http://www.w3.org/1999/xlink" xmlns="http://www.w3.org/2000/svg" xml:space="preserve" width="100%" xmlns:vectornator="http://vectornator.io" version="1.1" viewBox="0 0 640 480">
<defs/>
<g id="Layer 1" vectornator:layerName="Layer 1">
<path d="M271.288+71.2542C276.215+70.2588+275.886+78.3482+270.951+77.5131C269.857+77.6812+268.848+78.1336+267.816+78.5088C257.983+82.4476+248.784+87.8378+240.531+94.4851C238.422+96.1774+236.312+97.8697+234.203+99.562C232.469+101.063+230.734+102.563+229+104.064C226.531+106.372+224.111+108.727+221.965+111.344C215.981+119.752+211.565+129.094+207.041+138.33C174.589+193.691+187.555+269.369+233.87+312.949C267.382+345.883+317.268+359.694+362.899+348.175C426.509+331.178+478.313+269.43+476.341+202.491C475.917+150.319+435.288+107.496+389.635+87.5211C356.714+72.1083+319.397+66.4424+283.393+70.5973C275.626+73.3907+267.793+76.4464+260.823+80.9083C258.366+82.7692+256.52+85.2753+254.36+87.4488C253.193+88.7473+251.957+89.9859+250.637+91.1299C246.055+98.8973+238.444+87.8862+247.212+85.6505C248.947+84.0506+250.457+82.2296+252.116+80.5538C256.673+74.8021+263.533+71.8772+270.071+69.0233C274.532+67.0496+279.039+65.0765+283.811+63.9775C308.604+61.36+333.759+63.705+358.022+69.2009C414.214+84.0245+469.088+124.12+481.145+183.716C493.648+259.355+437.13+335.352+364.374+354.113C292.227+373.875+214.243+326.955+191.088+257.335C178.597+217.483+180.02+172.452+201.544+135.85C213.264+105.059+240.135+81.1236+271.288+71.2542" opacity="1" fill="#ffffff"/>
<path d="M281.458+360.231C286.163+363.282+279.223+368.877+276.199+364.251C275.252+363.736+274.311+363.209+273.378+362.67C272.289+361.928+271+361.592+269.811+361.054C266.34+359.742+262.841+358.507+259.342+357.274C203.391+338.539+150.903+311.16+96.2926+289.064C94.6436+288.119+93.0411+287.036+91.6114+285.778C88.1396+281.753+95.5279+277.905+97.8124+282.544C98.5201+283.049+99.2726+283.498+100.079+283.825C157.612+307.218+212.905+336.155+272.067+355.466" opacity="1" fill="#ffffff"/>
<path d="M397.552+360.701C391.639+361.956+393.204+352.425+398.952+353.89C399.762+353.535+400.573+353.18+401.383+352.825C411.319+348.123+420.997+342.897+430.57+337.499C483.96+308.95+535.61+276.711+590.977+252.103C592.366+251.418+593.903+251.376+595.389+251.115C601.565+249.158+601.027+259.55+594.781+257.547C593.341+257.946+591.961+258.518+590.578+259.078C588.162+260.12+585.78+261.234+583.406+262.365C578.095+264.844+572.753+267.259+567.384+269.611C510.517+299.407+455.285+332.764+397.552+360.701" opacity="1" fill="#ffffff"/>
<path d="M590.687+251.434C591.91+245.074+600.652+251.217+596.459+256.102C596.293+258.976+596.126+261.85+595.96+264.724C595.029+280.389+594.219+296.062+593.134+311.718C592.06+327.682+590.839+343.636+589.433+359.574C588.82+366.918+588.208+374.263+587.619+381.61C587.364+384.952+587.087+388.292+586.885+391.638C586.788+393.102+586.691+394.565+586.594+396.029C587.023+402.462+577.118+399.497+580.357+393.83C580.495+391.767+580.634+389.703+580.773+387.64C581.184+382.289+581.635+376.94+582.084+371.592C582.879+362.254+583.692+352.917+584.509+343.581C585.394+332.821+586.213+322.056+586.977+311.286C588.375+291.346+589.453+271.385+590.687+251.434" opacity="1" fill="#ffffff"/>
<path d="M521.117+290.76C521.587+285.168+529.895+288.699+527.131+293.572C527.119+295.418+527.106+297.264+527.094+299.111C529.694+331.767+520.824+364.867+523.54+397.145C523.778+397.957+524.229+399.105+525.325+398.895C545.543+397.271+565.545+390.315+586.094+392.618C591.805+394.126+586.796+401.921+582.112+398.681C580.638+398.594+579.162+398.632+577.687+398.624C575.209+398.599+572.733+398.71+570.258+398.804C553.939+397.952+537.953+407.551+521.932+403.813C508.867+391.433+521.605+370.133+519.113+354.989C520.927+333.626+521.033+312.183+521.117+290.76" opacity="1" fill="#ffffff"/>
<path d="M87.2714+287.45C87.8385+281.653+96.2166+285.621+93.3023+290.549C93.2646+291.587+93.2269+292.624+93.1892+293.661C93.114+295.322+93.0389+296.983+92.9637+298.644C90.6875+327.693+92.2411+356.847+90.7364+385.914C90.4331+389.856+90.0454+393.788+89.5343+397.708C89.2306+400.224+88.927+402.74+88.6055+405.254C88.9923+404.792+87.9523+409.159+88.0065+407.923C94.8767+408.96+101.956+406.841+108.903+407.222C121.803+406.576+135.836+406.813+148.304+405.623C149.646+372.701+148.067+339.253+146.186+306.552C155.489+299.054+153.869+322.587+153.525+325.915C155.643+352.704+155.341+379.746+154.34+406.542C153.916+408.122+152.976+409.575+151.644+410.536C130.98+414.83+108.812+412.71+87.7146+414.126C85.9788+413.73+84.2146+412.934+83.2507+411.354C82.5335+410.31+82.0643+409.054+82.1241+407.773" opacity="1" fill="#ffffff"/>
<path d="M154.886+388.405C149.568+388.096+152.392+380.07+157.146+382.372C158.628+382.372+160.11+382.37+161.592+382.369C163.049+382.368+164.506+382.367+165.963+382.366C167.898+382.365+169.833+382.363+171.768+382.362C204.931+381.854+238.139+383.797+271.169+386.03C281.288+387.765+273.472+399.108+268.345+391.936C265.4+391.745+262.45+391.645+259.505+391.463C224.654+389.643+189.824+387.515+154.886+388.405" opacity="1" fill="#ffffff"/>
<path d="M520.874+370.927C519.862+370.928+518.851+370.928+517.839+370.927C516.27+370.927+514.701+370.925+513.132+370.922C510.157+371.1+507.192+371.387+504.225+371.661C471.905+372.853+440.206+384.298+407.933+383.495C408.071+382.783+408.574+381.924+409.314+381.735C412.891+386.549+403.396+389.549+403.445+383.528C402.697+381.286+404.365+378.926+406.174+377.743C445.376+376.674+483.704+364.073+523.134+364.894" opacity="1" fill="#ffffff"/>
<path d="M322.37+366.474C321.933+361.283+330.121+362.779+328.617+367.715C328.764+368.694+328.976+369.666+329.292+370.606C331.766+374.746+333.31+381.828+338.886+382.569C341.885+381.447+343.574+378.194+345.251+375.628C345.778+373.764+345.971+371.8+346.046+369.866C341.608+363.334+353.134+359.056+352.236+366.773C352.309+368.08+352.47+369.385+352.371+370.696C352.218+373.22+351.894+375.774+351.012+378.155C343.215+398.495+321.577+382.679+322.37+366.474" opacity="1" fill="#ffffff"/>
<path d="M354.036+366.476C348.242+366.417+351.366+357.897+356.482+360.106C357.596+359.944+358.711+359.782+359.825+359.62C361.423+359.383+363.021+359.146+364.619+358.91C366.7+358.599+368.782+358.287+370.864+357.976C378.311+356.853+385.745+355.638+393.147+354.245C395.674+354.308+400.093+351.336+402.176+354.381C405.23+360.284+393.668+361.156+391.119+361.044C378.806+363.156+366.433+364.948+354.036+366.476" opacity="1" fill="#ffffff"/>
<path d="M280.199+365.524C277.046+365.994+275.618+361.171+278.52+359.852C285.873+357.989+293.794+360.933+301.203+361.168C306.343+361.857+311.442+362.797+316.548+363.693C318.897+364.047+321.366+363.54+323.627+364.517C332.013+363.596+328.761+376.157+323.056+370.938C321.884+370.731+320.807+370.091+319.59+370.158C315.553+370.375+311.633+369.099+307.674+368.494C298.589+367.139+289.408+365.159+280.199+365.524" opacity="1" fill="#ffffff"/>
<path d="M266.194+392.867C266.609+386.78+275.55+391.067+272.375+396.251C272.478+398.672+272.58+401.094+272.683+403.515C272.837+407.147+272.991+410.779+273.145+414.412C274.219+451.634+275.312+489.569+271.525+526.566C268.993+530.606+263.439+525.92+265.975+522.166C266.058+520.475+266.141+518.783+266.224+517.091C266.344+514.018+266.465+510.945+266.585+507.872C268.532+469.553+268.245+431.173+266.194+392.867" opacity="1" fill="#ffffff"/>
<path d="M402.863+387.637C402.286+382.098+410.992+383.942+409.234+389.182C409.181+392.178+409.127+395.173+409.074+398.169C407.542+439.76+406.812+481.542+404.593+523.055C403.451+526.283+398.154+525.114+398.473+521.706C398.577+518.974+398.681+516.242+398.785+513.51C398.993+508.046+399.201+502.582+399.409+497.118C400.257+460.652+403.197+424.05+402.863+387.637" opacity="1" fill="#ffffff"/>
<path d="M227.572+144.759C227.693+139.779+236.823+141.692+234.762+146.321C234.718+147.331+234.838+148.337+234.908+149.345C235.126+151.608+235.392+153.867+235.662+156.126C236.054+159.185+236.433+162.245+236.788+165.307C240.224+209.119+246.002+252.911+245.62+296.865C245.316+298.082+245.857+299.271+246.971+300.051C270.156+314.558+298.757+319.964+322.43+333.493C326.807+333.187+348.251+342.942+336.302+347.001C305.68+329.891+267.828+322.026+239.481+302.02C235.712+288.283+239.898+273.351+237.217+259.271C236.183+246.22+235.215+233.164+234.241+220.109C232.74+194.949+229.679+169.86+227.572+144.759" opacity="1" fill="#ffffff"/>
<path d="M337.166+346.922C326.59+340.713+329.634+337.314+337.326+337.449C338.696+336.666+343.813+334.942+345.183+334.16C370.521+319.199+399.574+309.06+424.841+294.092C424.104+294.026+424.266+293.117+424.083+292.761C422.563+250.187+429.947+207.774+427.161+165.181C426.225+160.237+426.483+155.202+425.942+150.226C425.802+149.225+425.73+148.193+425.34+147.232C416.421+141.208+433.3+135.771+432.981+145.975C439.626+195.752+430.79+245.879+431.024+295.761C430.984+296.907+430.164+297.769+429.355+298.635C401.728+315.861+368.801+326.531+341.166+343.922" opacity="1" fill="#ffffff"/>
<path d="M229.7+148.642C222.236+149.191+225.492+140.256+231.961+141.462C239.636+136.289+246.836+130.631+254.723+125.658C257.341+123.911+259.959+122.165+262.576+120.418C265.065+118.697+267.555+116.975+270.044+115.254C287.448+106.614+304.444+87.3178+322.137+80.4549C365.507+93.1307+391.645+124.55+431.912+142.068C440.706+148.377+424.971+154.355+425.752+145.821C386.496+130.037+362.756+100.268+322.048+86.7158C321.031+86.5057+322.373+86.2871+321.35+87.2365C294.955+108.745+261.487+133.072+229.7+148.642" opacity="1" fill="#ffffff"/>
<path d="M482.469+179.938C481.119+179.985+479.654+180.815+478.406+182.812C476.563+183.651+474.686+184.404+472.875+185.312C470.248+186.556+467.838+188.181+465.156+189.312C453.952+193.063+442.749+196.859+431.5+200.562C431.46+201.916+431.298+202.655+431.312+204.688C431.313+204.763+431.312+204.768+431.312+204.844C431.323+206.256+431.198+206.61+431.188+207.656C448.484+201.886+465.52+195.348+482.125+188.094C489.499+186.477+486.517+179.796+482.469+179.938Z" opacity="1" fill="#ffffff"/>
<path d="M178.031+208.531C174.798+208.18+171.417+211.912+175.188+214.375C194.851+223.266+215.881+227.359+237.25+229.312C237.213+228.427+237.241+228.165+237.188+227C237.117+225.481+237.098+224.792+237.062+223.938C237.05+223.622+237.043+223.426+237.031+223.125C221.104+221.657+205.273+219.215+190.125+213.875C188.241+213.254+186.375+212.608+184.531+211.875C183.327+211.409+182.13+210.933+180.938+210.438C180.162+209.215+179.109+208.648+178.031+208.531Z" opacity="1" fill="#ffffff"/>
<path d="M321.571+236.211C316.284+235.906+319.04+227.958+323.759+230.178C324.924+230.178+326.089+230.178+327.254+230.178C339.701+232.003+354.163+228.085+365.429+233.536C362.616+247.685+350.521+260.057+343.35+272.87C341.979+273.671+340.28+274.09+338.707+273.743C329.53+262.921+323.431+248.413+316.818+236.105C317.615+231.606+323.879+233.445+323.816+237.48C331.816+246.508+334.534+258.833+341.665+268.41C340.892+268.752+339.854+269.055+339.044+268.705C345.704+257.416+353.099+246.167+360.011+234.982C360.456+235.497+360.74+236.279+361.321+236.75C348.96+238.515+334.645+235.462+321.571+236.211" opacity="1" fill="#ffffff"/>
<path d="M261.528+187.567C256.608+186.013+261.078+178.984+264.989+182.339C266.091+182.776+267.168+183.274+268.244+183.772C270.422+184.689+272.619+185.558+274.814+186.432C276.575+187.121+278.336+187.81+280.097+188.499C291.88+193.233+304.29+197.668+314.962+204.47C317.57+213.876+304.225+210.789+299.299+214.544C289.874+218.092+281.203+223.656+271.599+226.655C270.698+225.465+272.275+223.236+270.746+221.987C277.289+224.247+268.004+233.289+266.421+225.023C266.716+223.5+267.779+222.225+268.943+221.261C283.262+215.759+296.971+206.185+312.349+204.908C312.559+206.206+312.668+208.601+311.129+209.032C295.259+200.421+278.196+194.347+261.528+187.567" opacity="1" fill="#ffffff"/>
<path d="M410.191+174.838C415.256+172.925+415.852+181.415+410.584+181.363C409.133+182.133+407.687+182.914+406.242+183.695C392.349+191.001+378.765+199.405+365.079+206.756C364.49+205.741+364.035+202.1+366.072+203.721C376.448+208.11+386.63+212.967+396.839+217.739C398.727+218.583+400.643+219.362+402.576+220.094C403.548+220.47+404.521+220.845+405.497+221.214C410.135+220.677+411.742+228.031+406.793+228.243C391.245+223.356+377.033+214.767+361.928+208.67C360.99+207.741+360.797+206.342+360.494+205.122C360.343+204.159+360.482+203.054+361.197+202.325C377.11+192.491+393.633+183.559+410.191+174.838" opacity="1" fill="#ffffff"/>
<path d="M506.821+98.9863C507.725+92.6357+516.404+98.0542+512.837+103.084C512.823+104.856+512.809+106.629+512.795+108.402C511.501+120.97+514.038+134.436+510.866+146.628C510.319+147.69+509.025+148.379+507.853+147.95C496.835+138.355+508.624+114.622+524.178+118.496C530.73+120.652+532.935+128.667+530.756+134.713C526.363+142.453+516.651+146.595+507.924+145.213C502.782+142.674+508.575+136.485+512.853+138.962C513.965+138.873+515.095+138.777+516.181+138.528C519.53+137.511+522.179+135.177+524.707+132.864C529.139+117.54+505.594+127.116+510.263+138.131C510.231+139.939+510.283+141.754+510.521+143.548C509.175+142.811+507.266+142.613+506.106+143.83C506.211+129.085+506.884+113.897+506.821+98.9863" opacity="1" fill="#ffffff"/>
<path d="M542.534+120.979C545.865+117.383+550.346+123.908+546.008+126.15C545.198+127.06+544.389+127.969+543.579+128.879C542.664+129.973+541.725+131.074+541.052+132.341C540.315+133.862+540.183+135.706+540.866+137.267C548.633+143.857+555.024+133.266+551.932+126.446C549.735+125.103+546.905+125.256+544.414+125.358C540.158+132.401+532.734+122.493+540.772+120.055C543.026+118.735+545.743+118.914+548.253+118.993C551.812+119.315+555.962+120.33+557.673+123.837C560.637+131.579+557.95+143.238+548.722+145.077C533.034+147.907+530.541+127.779+542.534+120.979" opacity="1" fill="#ffffff"/>
<path d="M567.442+118.096C572.754+114.269+574.682+124.303+568.849+125.553C568.603+129.096+564.893+134.38+568.201+137.33C581.174+146.787+584.595+119.488+570.326+122.707C571.269+122.445+572.267+121.147+571.733+120.373C577.606+123.99+568.326+130.449+566.33+123.579C564.807+121.263+565.778+117.587+568.521+116.707C574.52+115.278+581.356+117.799+584.41+123.341C588.379+131.561+585.066+144.747+574.345+145.241C558.473+146.696+557.469+125.916+567.442+118.096" opacity="1" fill="#ffffff"/>
<path d="M590.965+139.311C595.864+137.594+596.473+145.647+591.519+145.717C587.137+146.638+586.451+139.296+590.965+139.311" opacity="1" fill="#ffffff"/>
<path d="M357.189+42.529C354.198+42.3598+351.244+42.0119+348.399+41.1092C346.756+40.5875+344.939+40.2207+343.631+39.1912C342.595+38.3758+342.141+37.067+341.746+35.8719C341.133+34.0183+342.723+32.1704+343.833+30.7653C346.126+27.8618+349.299+25.7274+352.93+24.3552C358.647+22.1952+363.327+23.002+368.148+26.2022C369.297+26.9649+370.712+28.1895+371.712+29.2141C372.091+29.6022+372.245+30.5518+372.808+30.411C373.082+30.3421+372.668+29.9178+372.598+29.6712C372.464+29.1968+372.302+28.7241+372.136+28.2591C371.569+26.6688+369.253+22.7818+367.748+21.8885C361.704+18.3016+347.734+20.5539+343.282+25.697C339.785+29.7378+337.575+34.7377+339.492+39.7188C339.976+40.9768+341.023+42.0678+341.849+43.1462C342.695+44.2503+343.52+45.6332+344.824+46.3057" opacity="1" fill="#ffffff"/>
<path d="M251.108+61.5042C242.614+65.3022+236.565+71.4857+230.234+78.3734C226.001+82.9792+221.588+87.4252+217.613+92.2657C201.391+112.021+190.072+141.661+181.934+165.998C180.252+171.029+178.836+176.168+177.808+181.379C175.856+191.272+176.06+205.602+175.623+215.412C175.501+218.169+175.992+235.308+177.039+236.086C177.929+236.747+182.794+220.574+185.089+217.396C193.521+205.72+200.994+187.407+209.361+175.673C209.455+175.541+213.403+170.545+213.73+170.712C214.468+171.089+214.045+172.367+214.215+173.192C214.732+175.701+214.982+176.574+215.671+179.394C217.334+186.193+219.492+199.064+222.225+205.489C222.478+206.085+225.31+212.683+225.623+212.683C226.503+212.683+229.801+209.306+230.477+208.714C234.159+205.488+237.001+202.511+239.943+198.542C244.136+192.885+248.708+181.818+251.836+175.425C254.707+169.555+257.796+163.848+260.816+158.06C261.532+156.689+261.731+154.988+262.758+153.842C263.091+153.472+263.899+153.208+264.214+153.594C264.919+154.458+264.837+155.752+265.185+156.819C265.895+158.996+266.796+161.01+267.855+163.021C267.994+163.285+268.93+165.983+270.04+165.254C272.305+163.766+273.095+160.711+274.409+158.308C277.957+151.818+280.295+145.015+283.146+138.214C283.674+136.956+284.267+135.727+284.845+134.493C284.853+134.475+286.588+130.839+286.787+130.771C288.209+130.287+288.842+134.789+288.971+135.237C290.564+140.772+292.949+146.02+295.039+151.362C295.356+152.172+297.647+157.875+299.165+156.323C299.788+155.687+300.693+152.13+301.107+151.114C301.622+149.85+302.309+148.663+302.806+147.392C305.775+139.805+308.247+132.134+310.573+124.321C310.946+123.071+311.295+121.807+311.787+120.6C311.858+120.424+314.675+114.898+314.699+114.894C315.42+114.802+316.092+117.911+316.156+118.119C316.963+120.762+317.538+139.906+318.104+139.906C318.478+139.906+320.616+128.905+324.268+122.903C327.919+116.901+329.041+114.748+331.932+110.181C332.318+109.571+334.758+103.92+336.301+104.971C336.959+105.42+337.806+109.982+338+110.677C338.275+111.661+338.465+112.667+338.728+113.654C341.651+124.608+342.728+135.904+345.524+146.896C345.655+147.412+347.377+151.952+347.709+152.106C349.452+152.916+351.637+147.467+352.077+146.648C352.823+145.262+357.158+134.87+358.388+134.493C360.223+133.93+363.022+143.477+363.728+145.16C365.261+148.815+367.531+152.163+369.068+155.827C369.562+157.006+372.394+161.868+372.394+161.868C372.394+161.868+373.922+157.316+374.65+156.075C375.172+155.187+375.618+154.254+376.106+153.346C378.07+149.697+383.715+136.337+388.242+135.981C390.595+135.796+392.4+140.74+393.096+142.431C395.86+149.141+399.138+155.438+401.591+162.277C401.73+162.664+404.009+167.799+404.009+167.799C404.009+167.799+407.029+159.781+407.662+158.557C409.742+154.529+412.281+149.763+414.486+145.819C414.639+145.546+418.344+142.764+418.824+142.927C420.216+143.401+421.353+147.848+421.979+149.129C425.207+155.726+426.663+162.949+428.775+169.967C429.108+171.072+430.464+177.958+431.931+177.658C432.649+177.511+433.96+173.992+434.115+173.689C434.637+172.671+435.265+171.714+435.814+170.712C438.554+165.712+440.513+160.079+442.125+154.587C442.224+154.247+443.327+148.378+445.037+149.377C445.534+149.667+445.173+150.539+445.28+151.114C445.497+152.277+445.679+153.452+446.008+154.587C446.728+157.07+447.591+159.513+448.193+162.029C449.773+168.635+451.291+174.803+452.076+181.627C452.856+188.401+452.562+195.655+452.562+202.465C452.562+206.501+452.655+210.364+453.047+214.373C453.144+215.364+452.601+216.646+453.29+217.35C453.779+217.85+453.799+216.036+454.018+215.365C454.39+214.223+454.703+213.06+454.989+211.892C455.918+208.094+456.265+204.145+457.659+200.481C457.8+200.109+458.731+197.628+459.843+198.248C460.574+198.656+460.628+199.751+461.057+200.481C462.228+202.477+463.481+204.467+464.697+206.435C469.43+214.093+471.894+222.794+476.348+230.498C476.946+231.533+482.658+237.692+482.658+237.692C482.658+237.692+485.722+228.886+486.056+227.521C488.095+219.185+489.762+210.77+491.881+202.465C494.876+190.734+490.489+150.897+487.513+143.671C479.277+123.679+466.33+97.6552+451.348+82.3426C440.524+71.2797+427.764+61.5022+414.455+53.8138C409.181+50.767+402.974+49.0928+397.222+47.3639C392.36+45.902+387.523+43.869+382.417+43.3946C371.368+42.368+360.299+42.1542+349.165+42.1542C334.011+42.1542+319.752+42.3272+304.748+44.8831C293.98+46.7173+281.785+48.8038+271.981+53.8138C267.677+56.0133+262.414+59.4542+257.661+60.2638" opacity="1" fill="#ffffff"/>
<path d="M469.287+106.663C469.391+107.803+471.906+110.468+472.898+111.386C476.675+114.881+480.656+118.15+484.487+121.585C485.492+122.487+483.878+122.249+483.415+122.181C481.864+121.951+480.358+121.108+478.97+120.434C477.975+119.951+476.98+119.461+475.954+119.045C474.594+118.494+473.304+117.967+472.105+117.101" opacity="1" fill="#ffffff"/>
<path d="M277.917+51.6027C277.444+52.7026+274.948+53.1513+273.92+53.3319C272.992+53.4948+272.049+53.555+271.111+53.641C266.72+54.0436+262.349+53.25+257.964+53.5694C256.944+53.6437+255.928+53.7633+254.911+53.8717C250.673+54.3234+255.416+55.2259+256.883+55.7629C258.072+56.1978+259.252+56.6575+260.45+57.0665C261.573+57.4498+262.705+57.8062+263.843+58.1393C266.57+58.9371+269.358+59.5264+272.155+60.0275C275.058+60.5476+277.995+60.7092+280.901+61.2082" opacity="1" fill="#ffffff"/>
</g>
</svg>
