<svg style="fill-rule:nonzero;clip-rule:evenodd;stroke-linecap:round;stroke-linejoin:round" xmlns="http://www.w3.org/2000/svg" xml:space="preserve" xmlns:vectornator="http://vectornator.io" viewBox="0 0 640 480"><g vectornator:layerName="Layer 1" fill="#fff"><path d="M271.288 71.254c4.927-.995 4.598 7.094-.337 6.26-1.094.167-2.103.62-3.135.995a106.862 106.862 0 0 0-27.285 15.976l-6.328 5.077-5.203 4.502c-2.469 2.308-4.889 4.663-7.035 7.28-5.984 8.408-10.4 17.75-14.924 26.986-32.452 55.361-19.486 131.039 26.829 174.619 33.512 32.934 83.398 46.745 129.029 35.226 63.61-16.997 115.414-78.745 113.442-145.684-.424-52.172-41.053-94.995-86.706-114.97-32.921-15.413-70.238-21.079-106.242-16.924-7.767 2.794-15.6 5.85-22.57 10.311-2.457 1.861-4.303 4.367-6.463 6.54a42.062 42.062 0 0 1-3.723 3.682c-4.582 7.767-12.193-3.244-3.425-5.48 1.735-1.6 3.245-3.42 4.904-5.096 4.557-5.752 11.417-8.677 17.955-11.53 4.461-1.974 8.968-3.948 13.74-5.047 24.793-2.617 49.948-.272 74.211 5.224 56.192 14.824 111.066 54.919 123.123 114.515 12.503 75.639-44.015 151.636-116.771 170.397-72.147 19.762-150.131-27.158-173.286-96.778-12.491-39.852-11.068-84.883 10.456-121.485 11.72-30.791 38.591-54.726 69.744-64.596"/><path d="M281.458 360.231c4.705 3.051-2.235 8.646-5.259 4.02a125.483 125.483 0 0 1-2.821-1.581c-1.089-.742-2.378-1.078-3.567-1.616-3.471-1.312-6.97-2.547-10.469-3.78-55.951-18.735-108.439-46.114-163.05-68.21-1.648-.945-3.25-2.028-4.68-3.286-3.472-4.025 3.916-7.873 6.2-3.234.708.505 1.46.954 2.267 1.281 57.533 23.393 112.826 52.33 171.988 71.641M397.552 360.701c-5.913 1.255-4.348-8.276 1.4-6.811l2.431-1.065c9.936-4.702 19.614-9.928 29.187-15.326 53.39-28.549 105.04-60.788 160.407-85.396 1.389-.685 2.926-.727 4.412-.988 6.176-1.957 5.638 8.435-.608 6.432-1.44.399-2.82.971-4.203 1.531-2.416 1.042-4.798 2.156-7.172 3.287a738.26 738.26 0 0 1-16.022 7.246c-56.867 29.796-112.099 63.153-169.832 91.09"/><path d="M590.687 251.434c1.223-6.36 9.965-.217 5.772 4.668l-.499 8.622c-.931 15.665-1.741 31.338-2.826 46.994a2306.15 2306.15 0 0 1-3.701 47.856 6743.524 6743.524 0 0 0-1.814 22.036c-.255 3.342-.532 6.682-.734 10.028l-.291 4.391c.429 6.433-9.476 3.468-6.237-2.199l.416-6.19c.411-5.351.862-10.7 1.311-16.048.795-9.338 1.608-18.675 2.425-28.011.885-10.76 1.704-21.525 2.468-32.295 1.398-19.94 2.476-39.901 3.71-59.852"/><path d="M521.117 290.76c.47-5.592 8.778-2.061 6.014 2.812l-.037 5.539c2.6 32.656-6.27 65.756-3.554 98.034.238.812.689 1.96 1.785 1.75 20.218-1.624 40.22-8.58 60.769-6.277 5.711 1.508.702 9.303-3.982 6.063-1.474-.087-2.95-.049-4.425-.057-2.478-.025-4.954.086-7.429.18-16.319-.852-32.305 8.747-48.326 5.009-13.065-12.38-.327-33.68-2.819-48.824 1.814-21.363 1.92-42.806 2.004-64.229M87.271 287.45c.567-5.797 8.946-1.829 6.031 3.099l-.113 3.112-.225 4.983c-2.276 29.049-.723 58.203-2.228 87.27a224.235 224.235 0 0 1-1.202 11.794c-.303 2.516-.607 5.032-.928 7.546.386-.462-.654 3.905-.6 2.669 6.87 1.037 13.95-1.082 20.897-.701 12.9-.646 26.933-.409 39.401-1.599 1.342-32.922-.237-66.37-2.118-99.071 9.303-7.498 7.683 16.035 7.339 19.363 2.118 26.789 1.816 53.831.815 80.627-.424 1.58-1.364 3.033-2.696 3.994-20.664 4.294-42.832 2.174-63.93 3.59-1.735-.396-3.5-1.192-4.463-2.772-.718-1.044-1.187-2.3-1.127-3.581"/><path d="M154.886 388.405c-5.318-.309-2.494-8.335 2.26-6.033l4.446-.003 4.371-.003 5.805-.004c33.163-.508 66.371 1.435 99.401 3.668 10.119 1.735 2.303 13.078-2.824 5.906-2.945-.191-5.895-.291-8.84-.473-34.851-1.82-69.681-3.948-104.619-3.058M520.874 370.927h-3.035c-1.569 0-3.138-.002-4.707-.005-2.975.178-5.94.465-8.907.739-32.32 1.192-64.019 12.637-96.292 11.834.138-.712.641-1.571 1.381-1.76 3.577 4.814-5.918 7.814-5.869 1.793-.748-2.242.92-4.602 2.729-5.785 39.202-1.069 77.53-13.67 116.96-12.849M322.37 366.474c-.437-5.191 7.751-3.695 6.247 1.241.147.979.359 1.951.675 2.891 2.474 4.14 4.018 11.222 9.594 11.963 2.999-1.122 4.688-4.375 6.365-6.941.527-1.864.72-3.828.795-5.762-4.438-6.532 7.088-10.81 6.19-3.093.073 1.307.234 2.612.135 3.923-.153 2.524-.477 5.078-1.359 7.459-7.797 20.34-29.435 4.524-28.642-11.681"/><path d="M354.036 366.476c-5.794-.059-2.67-8.579 2.446-6.37l3.343-.486 4.794-.71 6.245-.934c7.447-1.123 14.881-2.338 22.283-3.731 2.527.063 6.946-2.909 9.029.136 3.054 5.903-8.508 6.775-11.057 6.663-12.313 2.112-24.686 3.904-37.083 5.432M280.199 365.524c-3.153.47-4.581-4.353-1.679-5.672 7.353-1.863 15.274 1.081 22.683 1.316 5.14.689 10.239 1.629 15.345 2.525 2.349.354 4.818-.153 7.079.824 8.386-.921 5.134 11.64-.571 6.421-1.172-.207-2.249-.847-3.466-.78-4.037.217-7.957-1.059-11.916-1.664-9.085-1.355-18.266-3.335-27.475-2.97M266.194 392.867c.415-6.087 9.356-1.8 6.181 3.384l.308 7.264.462 10.897c1.074 37.222 2.167 75.157-1.62 112.154-2.532 4.04-8.086-.646-5.55-4.4l.249-5.075.361-9.219c1.947-38.319 1.66-76.699-.391-115.005M402.863 387.637c-.577-5.539 8.129-3.695 6.371 1.545l-.16 8.987c-1.532 41.591-2.262 83.373-4.481 124.886-1.142 3.228-6.439 2.059-6.12-1.349l.312-8.196.624-16.392c.848-36.466 3.788-73.068 3.454-109.481M227.572 144.759c.121-4.98 9.251-3.067 7.19 1.562-.044 1.01.076 2.016.146 3.024.218 2.263.484 4.522.754 6.781.392 3.059.771 6.119 1.126 9.181 3.436 43.812 9.214 87.604 8.832 131.558-.304 1.217.237 2.406 1.351 3.186 23.185 14.507 51.786 19.913 75.459 33.442 4.377-.306 25.821 9.449 13.872 13.508-30.622-17.11-68.474-24.975-96.821-44.981-3.769-13.737.417-28.669-2.264-42.749-1.034-13.051-2.002-26.107-2.976-39.162-1.501-25.16-4.562-50.249-6.669-75.35"/><path d="M337.166 346.922c-10.576-6.209-7.532-9.608.16-9.473 1.37-.783 6.487-2.507 7.857-3.289 25.338-14.961 54.391-25.1 79.658-40.068-.737-.066-.575-.975-.758-1.331-1.52-42.574 5.864-84.987 3.078-127.58-.936-4.944-.678-9.979-1.219-14.955-.14-1.001-.212-2.033-.602-2.994-8.919-6.024 7.96-11.461 7.641-1.257 6.645 49.777-2.191 99.904-1.957 149.786-.04 1.146-.86 2.008-1.669 2.874-27.627 17.226-60.554 27.896-88.189 45.287"/><path d="M229.7 148.642c-7.464.549-4.208-8.386 2.261-7.18 7.675-5.173 14.875-10.831 22.762-15.804l7.853-5.24 7.468-5.164c17.404-8.64 34.4-27.936 52.093-34.8 43.37 12.677 69.508 44.096 109.775 61.614 8.794 6.309-6.941 12.287-6.16 3.753-39.256-15.784-62.996-45.553-103.704-59.105-1.017-.21.325-.429-.698.52-26.395 21.509-59.863 45.836-91.65 61.406M482.469 179.938c-1.35.047-2.815.877-4.063 2.874-1.843.839-3.72 1.592-5.531 2.5-2.627 1.244-5.037 2.869-7.719 4-11.204 3.751-22.407 7.547-33.656 11.25-.04 1.354-.202 2.093-.188 4.126v.156c.011 1.412-.114 1.766-.124 2.812a608 608 0 0 0 50.937-19.562c7.374-1.617 4.392-8.298.344-8.156zM178.031 208.531c-3.233-.351-6.614 3.381-2.843 5.844 19.663 8.891 40.693 12.984 62.062 14.937-.037-.885-.009-1.147-.062-2.312-.071-1.519-.09-2.208-.126-3.062l-.031-.813c-15.927-1.468-31.758-3.91-46.906-9.25-1.884-.621-3.75-1.267-5.594-2a159.06 159.06 0 0 1-3.593-1.437c-.776-1.223-1.829-1.79-2.907-1.907zM321.571 236.211c-5.287-.305-2.531-8.253 2.188-6.033h3.495c12.447 1.825 26.909-2.093 38.175 3.358-2.813 14.149-14.908 26.521-22.079 39.334-1.371.801-3.07 1.22-4.643.873-9.177-10.822-15.276-25.33-21.889-37.638.797-4.499 7.061-2.66 6.998 1.375 8 9.028 10.718 21.353 17.849 30.93-.773.342-1.811.645-2.621.295 6.66-11.289 14.055-22.538 20.967-33.723.445.515.729 1.297 1.31 1.768-12.361 1.765-26.676-1.288-39.75-.539M261.528 187.567c-4.92-1.554-.45-8.583 3.461-5.228 1.102.437 2.179.935 3.255 1.433 2.178.917 4.375 1.786 6.57 2.66l5.283 2.067c11.783 4.734 24.193 9.169 34.865 15.971 2.608 9.406-10.737 6.319-15.663 10.074-9.425 3.548-18.096 9.112-27.7 12.111-.901-1.19.676-3.419-.853-4.668 6.543 2.26-2.742 11.302-4.325 3.036.295-1.523 1.358-2.798 2.522-3.762 14.319-5.502 28.028-15.076 43.406-16.353.21 1.298.319 3.693-1.22 4.124-15.87-8.611-32.933-14.685-49.601-21.465M410.191 174.838c5.065-1.913 5.661 6.577.393 6.525-1.451.77-2.897 1.551-4.342 2.332-13.893 7.306-27.477 15.71-41.163 23.061-.589-1.015-1.044-4.656.993-3.035 10.376 4.389 20.558 9.246 30.767 14.018 1.888.844 3.804 1.623 5.737 2.355.972.376 1.945.751 2.921 1.12 4.638-.537 6.245 6.817 1.296 7.029-15.548-4.887-29.76-13.476-44.865-19.573-.938-.929-1.131-2.328-1.434-3.548-.151-.963-.012-2.068.703-2.797 15.913-9.834 32.436-18.766 48.994-27.487M506.821 98.986c.904-6.35 9.583-.932 6.016 4.098l-.042 5.318c-1.294 12.568 1.243 26.034-1.929 38.226-.547 1.062-1.841 1.751-3.013 1.322-11.018-9.595.771-33.328 16.325-29.454 6.552 2.156 8.757 10.171 6.578 16.217-4.393 7.74-14.105 11.882-22.832 10.5-5.142-2.539.651-8.728 4.929-6.251 1.112-.089 2.242-.185 3.328-.434 3.349-1.017 5.998-3.351 8.526-5.664 4.432-15.324-19.113-5.748-14.444 5.267-.032 1.808.02 3.623.258 5.417-1.346-.737-3.255-.935-4.415.282.105-14.745.778-29.933.715-44.844M542.534 120.979c3.331-3.596 7.812 2.929 3.474 5.171l-2.429 2.729c-.915 1.094-1.854 2.195-2.527 3.462-.737 1.521-.869 3.365-.186 4.926 7.767 6.59 14.158-4.001 11.066-10.821-2.197-1.343-5.027-1.19-7.518-1.088-4.256 7.043-11.68-2.865-3.642-5.303 2.254-1.32 4.971-1.141 7.481-1.062 3.559.322 7.709 1.337 9.42 4.844 2.964 7.742.277 19.401-8.951 21.24-15.688 2.83-18.181-17.298-6.188-24.098"/><path d="M567.442 118.096c5.312-3.827 7.24 6.207 1.407 7.457-.246 3.543-3.956 8.827-.648 11.777 12.973 9.457 16.394-17.842 2.125-14.623.943-.262 1.941-1.56 1.407-2.334 5.873 3.617-3.407 10.076-5.403 3.206-1.523-2.316-.552-5.992 2.191-6.872 5.999-1.429 12.835 1.092 15.889 6.634 3.969 8.22.656 21.406-10.065 21.9-15.872 1.455-16.876-19.325-6.903-27.145M590.965 139.311c4.899-1.717 5.508 6.336.554 6.406-4.382.921-5.068-6.421-.554-6.406M357.189 42.529c-2.991-.17-5.945-.517-8.79-1.42-1.643-.522-3.46-.888-4.768-1.918-1.036-.815-1.49-2.124-1.885-3.32-.613-1.853.977-3.7 2.087-5.106 2.293-2.903 5.466-5.038 9.097-6.41 5.717-2.16 10.397-1.353 15.218 1.847 1.149.763 2.564 1.987 3.564 3.012.379.388.533 1.338 1.096 1.197.274-.069-.14-.493-.21-.74a22.079 22.079 0 0 0-.462-1.412c-.567-1.59-2.883-5.477-4.388-6.37-6.044-3.587-20.014-1.335-24.466 3.808-3.497 4.04-5.707 9.04-3.79 14.022.484 1.258 1.531 2.349 2.357 3.427.846 1.104 1.671 2.487 2.975 3.16"/><path d="M251.108 61.504c-8.494 3.798-14.543 9.982-20.874 16.87-4.233 4.605-8.646 9.051-12.621 13.892-16.222 19.755-27.541 49.395-35.679 73.732-1.682 5.031-3.098 10.17-4.126 15.381-1.952 9.893-1.748 24.223-2.185 34.033-.122 2.757.369 19.896 1.416 20.674.89.661 5.755-15.512 8.05-18.69 8.432-11.676 15.905-29.989 24.272-41.723.094-.132 4.042-5.128 4.369-4.961.738.377.315 1.655.485 2.48.517 2.509.767 3.382 1.456 6.202 1.663 6.799 3.821 19.67 6.554 26.095.253.596 3.085 7.194 3.398 7.194.88 0 4.178-3.377 4.854-3.969 3.682-3.226 6.524-6.203 9.466-10.172 4.193-5.657 8.765-16.724 11.893-23.117 2.871-5.87 5.96-11.577 8.98-17.365.716-1.371.915-3.072 1.942-4.218.333-.37 1.141-.634 1.456-.248.705.864.623 2.158.971 3.225.71 2.177 1.611 4.191 2.67 6.202.139.264 1.075 2.962 2.185 2.233 2.265-1.488 3.055-4.543 4.369-6.946 3.548-6.49 5.886-13.293 8.737-20.094.528-1.258 1.121-2.487 1.699-3.721.008-.018 1.743-3.654 1.942-3.722 1.422-.484 2.055 4.018 2.184 4.466 1.593 5.535 3.978 10.783 6.068 16.125.317.81 2.608 6.513 4.126 4.961.623-.636 1.528-4.193 1.942-5.209.515-1.264 1.202-2.451 1.699-3.722 2.969-7.587 5.441-15.258 7.767-23.071.373-1.25.722-2.514 1.214-3.721.071-.176 2.888-5.702 2.912-5.706.721-.092 1.393 3.017 1.457 3.225.807 2.643 1.382 21.787 1.948 21.787.374 0 2.512-11.001 6.164-17.003 3.651-6.002 4.773-8.155 7.664-12.722.386-.61 2.826-6.261 4.369-5.21.658.449 1.505 5.011 1.699 5.706.275.984.465 1.99.728 2.977 2.923 10.954 4 22.25 6.796 33.242.131.516 1.853 5.056 2.185 5.21 1.743.81 3.928-4.639 4.368-5.458.746-1.386 5.081-11.778 6.311-12.155 1.835-.563 4.634 8.984 5.34 10.667 1.533 3.655 3.803 7.003 5.34 10.667.494 1.179 3.326 6.041 3.326 6.041s1.528-4.552 2.256-5.793c.522-.888.968-1.821 1.456-2.729 1.964-3.649 7.609-17.009 12.136-17.365 2.353-.185 4.158 4.759 4.854 6.45 2.764 6.71 6.042 13.007 8.495 19.846.139.387 2.418 5.522 2.418 5.522s3.02-8.018 3.653-9.242a464.54 464.54 0 0 1 6.824-12.738c.153-.273 3.858-3.055 4.338-2.892 1.392.474 2.529 4.921 3.155 6.202 3.228 6.597 4.684 13.82 6.796 20.838.333 1.105 1.689 7.991 3.156 7.691.718-.147 2.029-3.666 2.184-3.969.522-1.018 1.15-1.975 1.699-2.977 2.74-5 4.699-10.633 6.311-16.125.099-.34 1.202-6.209 2.912-5.21.497.29.136 1.162.243 1.737.217 1.163.399 2.338.728 3.473.72 2.483 1.583 4.926 2.185 7.442 1.58 6.606 3.098 12.774 3.883 19.598.78 6.774.486 14.028.486 20.838 0 4.036.093 7.899.485 11.908.097.991-.446 2.273.243 2.977.489.5.509-1.314.728-1.985.372-1.142.685-2.305.971-3.473.929-3.798 1.276-7.747 2.67-11.411.141-.372 1.072-2.853 2.184-2.233.731.408.785 1.503 1.214 2.233 1.171 1.996 2.424 3.986 3.64 5.954 4.733 7.658 7.197 16.359 11.651 24.063.598 1.035 6.31 7.194 6.31 7.194s3.064-8.806 3.398-10.171c2.039-8.336 3.706-16.751 5.825-25.056 2.995-11.731-1.392-51.568-4.368-58.794-8.236-19.992-21.183-46.016-36.165-61.328-10.824-11.063-23.584-20.84-36.893-28.53-5.274-3.046-11.481-4.72-17.233-6.45-4.862-1.461-9.699-3.494-14.805-3.968-11.049-1.027-22.118-1.24-33.252-1.24-15.154 0-29.413.172-44.417 2.728-10.768 1.834-22.963 3.92-32.767 8.93-4.304 2.2-9.567 5.641-14.32 6.45"/><path d="M469.287 106.663c.104 1.14 2.619 3.805 3.611 4.723 3.777 3.495 7.758 6.764 11.589 10.199 1.005.902-.609.664-1.072.596-1.551-.23-3.057-1.073-4.445-1.747-.995-.483-1.99-.973-3.016-1.389-1.36-.551-2.65-1.078-3.849-1.944M277.917 51.603c-.473 1.1-2.969 1.548-3.997 1.729-.928.163-1.871.223-2.809.309-4.391.403-8.762-.391-13.147-.072-1.02.075-2.036.194-3.053.303-4.238.451.505 1.354 1.972 1.89 1.189.436 2.369.895 3.567 1.304 1.123.384 2.255.74 3.393 1.073 2.727.798 5.515 1.387 8.312 1.889 2.903.52 5.84.681 8.746 1.18"/></g></svg>