<svg xmlns="http://www.w3.org/2000/svg" viewBox="0 0 73 73" style="enable-background:new 0 0 73 73"><path d="M72 19.94c0-.72-.01-1.45-.03-2.17-.04-1.58-.14-3.17-.42-4.73-.28-1.58-.75-3.06-1.48-4.5-.72-1.41-1.66-2.71-2.78-3.83a15.204 15.204 0 0 0-3.83-2.78A15.9 15.9 0 0 0 58.97.45C57.41.17 55.82.08 54.24.03L52.06 0H19.94c-.72 0-1.45.01-2.17.03-1.58.04-3.17.14-4.73.42-1.58.29-3.06.75-4.49 1.49-1.42.72-2.71 1.66-3.83 2.78S2.65 7.13 1.93 8.55C1.2 9.99.73 11.46.45 13.05.17 14.61.08 16.2.03 17.78L0 19.94v32.11c0 .72.01 1.45.03 2.17.04 1.58.14 3.17.42 4.73.28 1.58.75 3.06 1.48 4.5.72 1.41 1.66 2.71 2.78 3.83s2.42 2.06 3.83 2.78a15.9 15.9 0 0 0 4.49 1.48c1.56.28 3.15.37 4.73.42.72.02 1.45.03 2.17.03.86.01 1.72 0 2.58 0h29.53c.72 0 1.45-.01 2.17-.03 1.58-.04 3.17-.14 4.73-.42 1.58-.28 3.06-.75 4.49-1.48 1.41-.72 2.71-1.66 3.83-2.78 1.12-1.12 2.06-2.41 2.78-3.83.73-1.44 1.2-2.91 1.48-4.5.28-1.56.37-3.15.42-4.73.02-.72.03-1.45.03-2.17.01-.86 0-1.72 0-2.58V22.52c.03-.86.03-1.72.03-2.58zM52.71 46.85c0 .91-.01 1.74-.2 2.65-.19.89-.53 1.72-1.05 2.47a6.23 6.23 0 0 1-1.97 1.82c-.79.47-1.62.73-2.5.91-1.66.33-2.79.41-3.86.2-1.03-.21-1.9-.68-2.6-1.32-1.03-.95-1.68-2.23-1.82-3.56-.16-1.57.36-3.24 1.53-4.48.59-.62 1.34-1.11 2.34-1.5 1.04-.4 2.19-.65 3.96-1 .47-.09.93-.19 1.4-.28.61-.12 1.14-.28 1.56-.8.43-.52.43-1.16.43-1.78V24.32c0-1.21-.54-1.54-1.7-1.32-.83.16-18.62 3.75-18.62 3.75-1 .24-1.36.57-1.36 1.82V51.8c0 .91-.05 1.74-.24 2.65-.19.89-.53 1.72-1.05 2.47a6.23 6.23 0 0 1-1.97 1.82c-.79.47-1.62.74-2.5.92-1.66.33-2.79.41-3.86.2a5.43 5.43 0 0 1-2.6-1.33 5.697 5.697 0 0 1-1.78-3.56c-.16-1.57.31-3.24 1.49-4.48.59-.62 1.34-1.11 2.34-1.5 1.04-.4 2.19-.65 3.96-1 .47-.09.93-.19 1.4-.28.61-.12 1.14-.28 1.56-.8.42-.52.47-1.13.47-1.75V18.38c0-.36.03-.6.05-.72.09-.56.31-1.05.72-1.39.34-.28.78-.48 1.33-.6h.01L49 11.33c.19-.04 1.73-.31 1.91-.33 1.16-.1 1.81.66 1.81 1.89l-.01 33.96z" style="fill-rule:evenodd;clip-rule:evenodd"/></svg>
