<!-- Taken from https://github.com/hummingbird-me/kitsu-web/blob/react/src/assets/favicon.svg - belongs to Kitsu. Sorry if I'm not allowed to use this! -->
<svg xmlns="http://www.w3.org/2000/svg" viewBox="0 0 814 814"><path d="M276.133 2.933c-8.4 1.467-13.466 6.134-21.466 19.334-3.867 6.4-7.067 12.266-7.334 13.066-.133.667-1.466 4.134-3.066 7.6-4.267 9.734-8.4 23.334-10.4 35.067-2.267 13.2-2.934 35.733-1.467 46.267.667 4.8.533 5.066-6.267 8.933-11.333 6.267-25.733 16-33.866 22.533-4.267 3.334-8.267 6.534-9.067 7.067-.8.667-4.4-.4-8.667-2.667C161.6 153.2 140.4 146.8 122.667 144.4c-8.134-1.067-34.134-1.067-40.667 0-21.733 3.467-26 4.933-31.067 10.933-4 4.534-5.6 8.934-5.6 15.334 0 5.333 3.734 15.466 6.934 18.8.933 1.066 3.333 4 5.066 6.533 1.734 2.533 3.6 4.933 4 5.333.4.4 4 4.534 8 9.334 19.334 22.8 46.134 47.066 69.2 62.533 22 14.667 30.134 18.533 66.134 32.133 8.133 3.067 15.866 6 17.333 6.667 2.8 1.333 24.8 9.733 26 10 .4.133 1.867.667 3.333 1.333 1.467.534 5.734 2.267 9.334 3.6 3.733 1.334 7.866 2.934 9.333 3.6 1.467.667 6.267 2.534 10.667 4.134 4.4 1.6 9.2 3.466 10.666 4.133 11.467 4.933 29.2 11.2 35.334 12.533 6.133 1.334 8.266 1.2 12.666-.533 7.734-2.933 12.534-8.133 15.067-16.133.267-1.067.667-39.867.667-86 0-74.267-.4-95.467-2.667-105.334-.267-1.466-.8-4.133-1.2-6-.4-1.866-1.867-8.4-3.333-14.666a1256.285 1256.285 0 0 0-3.2-13.334c-.4-1.733-2.934-9.066-9.6-27.333-2.667-7.333-21.734-45.733-28.667-58C296.267 6.4 288.133.8 276.133 2.933ZM282 42.667c16.133 32 23.6 47.466 25.867 53.6 2.533 7.2 2.533 7.733.4 7.866-1.2 0-3.2.267-4.267.534-1.067.266-3.467.666-5.333 1.066-1.867.4-6 1.334-9.334 2.267-3.333.933-6.533 1.733-7.333 2-.667.133-2.267.533-3.333.933-11.734 4-16.267 5.334-16.8 4.667-.934-.933-.934-17.867 0-24.267.533-2.933 1.2-7.466 1.6-10C265.2 69.467 276.8 40 279.733 40c.534 0 1.6 1.2 2.267 2.667ZM119.333 175.2c12.8 1.6 34.4 8 38.267 11.333.533.4-2.4 5.067-6.4 10.134-4.133 5.2-8.133 10.266-8.933 11.333-.934 1.067-4.267 6-7.6 10.933l-6 8.934-5.867-5.6C106.4 206.4 101.333 200.933 88.533 186c-7.066-8.4-9.733-12.267-7.733-11.067.667.4 3.867.4 7.2-.133 6.933-1.067 21.6-.8 31.333.4Z"/><path d="M500.933 160.8c-.133.133-5.6.667-12.267 1.067-14 1.066-16.933 1.466-23.333 2.666-2.533.4-6.133 1.067-8 1.334-1.867.4-8.133 1.866-14 3.466-5.867 1.6-11.6 3.067-12.667 3.334-4.533 1.066-26.666 10-35.999 14.533l-10 4.933-.134 68.933c0 37.867-.4 71.867-.8 75.6-1.866 16-14 32.134-30 39.6-7.2 3.467-10.4 4.134-19.466 4.267-6 0-12.667-.267-14.934-.8-4-1.067-40.8-14.8-50.666-19.067-2.934-1.2-6.267-2.4-7.334-2.666-1.066-.267-11.2-4.134-22.4-8.534-11.2-4.533-20.666-8.133-21.066-8.133-.4 0-2.934-.933-5.6-2.133-6.134-2.667-8.134-3.467-19.334-7.734-5.2-2-9.866-3.066-10.8-2.533-1.066.667-5.6 4.4-10.133 8.4-4.667 4-9.467 8.267-10.667 9.333-27.866 24.267-73.866 70.8-96 97.334-3.333 4-7.333 8.666-9.066 10.533-6.934 7.6-9.067 13.6-8.4 23.467.266 4.666 7.066 13.866 12 16.133 6 2.8 13.2 3.467 18.133 1.6 2.267-.8 8.533-4.667 14-8.4 20.8-14.267 60.8-38.667 64.667-39.333.8-.134 2.8-1.334 4.666-2.667 5.867-4 38.4-19.333 40.4-18.933.534.133.934-.267.934-.934 0-.666 1.333-1.6 3.066-2.133 1.6-.533 3.6-1.2 4.267-1.333.8-.267 6.4-2.667 12.667-5.334 6.266-2.8 13.733-5.066 16.8-5.333 10.4-.8 22 7.6 23.733 17.2.4 2.133.933 4 1.333 4.4 1.734 1.733-8.266 23.333-12.4 27.067-.8.666-1.6 2-7.066 11.866-1.467 2.667-3.2 5.334-3.734 6.134-.533.666-4.4 7.866-8.666 16-4.267 8-8.134 15.2-8.8 16-.534.666-2 4-3.334 7.333-1.333 3.333-3.2 7.467-4.4 9.2-1.066 1.733-2.133 3.867-2.266 4.667-.134.8-2.134 5.6-4.534 10.8-6 13.066-11.333 26.533-18.266 46-7.867 22.4-7.6 21.066-7.6 28.666-.134 8.134 2.4 13.2 8.8 18.4 3.866 3.2 6.4 4 12.666 4.267 10.134.533 15.067-2.133 22.667-12.133 1.733-2.134 8.133-10.667 14.4-18.934 11.067-14.533 15.067-19.6 19.333-24.266 1.067-1.2 5.867-6.667 10.534-12.134 8.8-10 48.266-49.866 58.133-58.533 9.6-8.533 27.733-23.467 40.133-33.067 14.8-11.333 49.067-34.933 50.934-34.933.8 0 1.6-.533 1.866-1.067.4-1.066 14.533-9.733 31.067-18.933 54.266-30.533 122.533-56.267 185.6-69.733 16.133-3.467 19.6-3.067 25.066 3.066 3.867 4.267 3.467 13.6-.666 18-2.934 3.067-12.667 6.934-20.4 8-6.4.934-38 11.6-52 17.6-26.934 11.6-82.8 42.8-84.667 47.334-.267.533-1.067 1.066-1.867 1.066-1.466 0-19.733 13.334-28.666 20.934-1.467 1.333-5.467 4.533-8.667 7.066-10 8-40.267 38.8-50.266 51.2-13.2 16.267-27.6 38.534-37.2 57.067-4.4 8.667-7.734 15.733-7.467 15.733.4 0-.4 1.867-1.467 4-4.533 8.667-13.333 39.2-15.866 54.667-2.667 16.8-3.6 47.867-1.734 64.133 2.8 25.467 8.667 49.734 16.4 68.534 4.134 9.866 6.667 12.933 13.334 16.266 10.666 5.334 23.6.934 30.666-10.666 20-32.267 40.8-49.867 85.467-72.134 8.266-4.133 15.866-7.466 16.8-7.466 1.066 0 2.666-.934 3.6-2 .933-1.067 2.4-2 3.333-2 .933 0 5.6-1.734 10.267-3.734 4.533-2.133 10.533-4.666 13.066-5.733 7.6-3.067 47.467-23.333 53.6-27.2 3.2-2 11.2-6.933 17.734-11.067 6.666-4 15.6-10 20-13.2 4.4-3.066 9.466-6.8 11.333-8 14.133-10.266 44.533-38.4 54.8-51.066 2.533-3.067 5.2-6.267 5.867-7.2 9.866-11.067 34.4-50.134 31.733-50.134-.667 0-.4-.533.533-1.066 4-2.534 18-42.934 21.734-62.934 4-20.8 4.4-26 4.4-52.666.133-27.867-.267-32.534-4.4-52.8-5.334-25.867-16.4-56-28-75.334-3.734-6.4-13.6-22-14.934-23.866-35.733-47.467-77.2-78-129.6-95.6-6.533-2.133-12.8-4.133-14-4.4-1.2-.267-4.533-1.067-7.466-1.733-2.934-.8-7.067-1.867-9.334-2.267-2.133-.4-5.466-1.067-7.333-1.467-8.933-1.866-51.067-4.8-52.4-3.733Zm-96.666 459.6c8.8 14 25.733 30.533 41.733 41.2 14.933 9.866 39.733 20.933 51.333 22.933 1.867.267 4.267.933 5.333 1.333 1.067.4 4 .934 6.4 1.334 6.134.8 6.4 1.466 1.334 3.466-14.667 5.867-54.4 26.534-61.734 32.267-.666.533-5.866 4.4-11.333 8.4C424.666 740.8 402.667 762 402.667 764.8c0 .4-.8 1.466-1.6 2.4-.934 1.066-2.667 3.066-3.734 4.666-3.6 5.2-3.6 5.067-9.066-17.333-5.334-21.867-6.267-30-6.134-55.2 0-11.733.534-24.4 1.067-28 1.733-11.467 6.133-30 8.267-35.067 1.066-2.666 2-5.2 1.866-5.6-.133-1.466 5.734-16 6.534-16 .4 0 2.4 2.534 4.4 5.734Z"/></svg>